<svg xmlns="http://www.w3.org/2000/svg" xmlns:svg="http://www.w3.org/2000/svg" id="svg10" width="16" height="16" version="1.1" viewBox="0 0 16 16"><path id="path2-3" style="fill:#2e3436" d="M 7 1.9921875 L 7 3.9921875 L 4.75 3.9921875 L 7.78125 6.9921875 L 8.21875 6.9921875 L 11.25 3.9921875 L 9 3.9921875 L 9 1.9921875 L 7 1.9921875 z M 1 7.9921875 L 1 9.9921875 L 15 9.9921875 L 15 7.9921875 L 1 7.9921875 z M 5 12 L 5 13 L 5.0078125 13 C 5.0039025 13.261719 5.1093748 13.515624 5.2929688 13.707031 L 7.2929688 15.703125 C 7.6835938 16.09375 8.3164062 16.09375 8.7070312 15.703125 L 10.707031 13.707031 C 10.894531 13.515624 10.996094 13.261719 10.996094 13 L 11 13 L 11 12 L 5 12 z"/></svg>