<svg xmlns="http://www.w3.org/2000/svg" xmlns:svg="http://www.w3.org/2000/svg" id="svg8" width="16" height="16" version="1.1" viewBox="0 0 16 16"><path id="path2" style="fill:#2e3436" d="M 5 2 C 4.691406 2 4.449219 2.089844 4.25 2.28125 L 0.59375 6 L 4.25 9.71875 C 4.449219 9.910156 4.691406 10 5 10 L 6 10 L 6 9 C 6 8.742188 5.871094 8.472656 5.6875 8.28125 L 3.4375 6 L 5.6875 3.71875 C 5.871094 3.527344 6 3.257812 6 3 L 6 2 L 5 2 z M 10 2 L 10 3 C 10 3.257812 10.128906 3.527344 10.3125 3.71875 L 12.5625 6 L 10.3125 8.28125 C 10.128906 8.472656 10 8.742188 10 9 L 10 10 L 11 10 C 11.308594 10 11.550781 9.91016 11.75 9.71875 L 15.40625 6 L 11.75 2.28125 C 11.550781 2.089844 11.308594 2 11 2 L 10 2 z M 4.9960938 12.003906 L 4.9960938 13.003906 L 5.0039062 13.003906 C 4.9999962 13.265625 5.1054685 13.519531 5.2890625 13.710938 L 7.2890625 15.707031 C 7.6796875 16.097656 8.3125 16.097656 8.703125 15.707031 L 10.703125 13.710938 C 10.890625 13.519531 10.992188 13.265625 10.992188 13.003906 L 10.996094 13.003906 L 10.996094 12.003906 L 4.9960938 12.003906 z"/></svg>