<svg xmlns="http://www.w3.org/2000/svg" xmlns:svg="http://www.w3.org/2000/svg" xmlns:xlink="http://www.w3.org/1999/xlink" id="svg39" width="128" height="128" version="1.1" viewBox="0 0 128 128"><linearGradient id="a" x1="100" x2="108" y1="112" y2="112" gradientTransform="matrix(-1,0,0,1,135.28634,3.883812)" gradientUnits="userSpaceOnUse"><stop id="stop1" offset="0" stop-color="#6ce4ab"/><stop id="stop2" offset=".5" stop-color="#a9fbd0"/><stop id="stop3" offset="1" stop-color="#6ce4ab"/></linearGradient><linearGradient id="b" x1="20" x2="24" y1="108" y2="108" gradientTransform="matrix(-1,0,0,1,135.28634,3.883812)" gradientUnits="userSpaceOnUse"><stop id="stop4" offset="0" stop-color="#09635f"/><stop id="stop5" offset=".5" stop-color="#1f726e"/><stop id="stop6" offset="1" stop-color="#09635f"/></linearGradient><linearGradient id="c" gradientUnits="userSpaceOnUse"><stop id="stop7" offset="0" stop-color="#9a9996"/><stop id="stop8" offset="1" stop-color="#f6f5f4"/></linearGradient><linearGradient id="d" x1="-231.103" x2="-227.103" y1="131.796" y2="131.796" gradientTransform="matrix(-0.965926,-0.258819,-0.258819,0.965926,-101.51169,-103.49939)" xlink:href="#c"/><linearGradient id="e" x1="-221.103" x2="-237.102" y1="92.796" y2="92.796" gradientTransform="matrix(-0.965926,-0.258819,-0.258819,0.965926,-101.51169,-103.49939)" gradientUnits="userSpaceOnUse"><stop id="stop9" offset="0" stop-color="#02ab90"/><stop id="stop10" offset="1" stop-color="#09635f"/></linearGradient><linearGradient id="f" gradientUnits="userSpaceOnUse"><stop id="stop11" offset="0" stop-color="#f6f5f4"/><stop id="stop12" offset="1" stop-color="#9a9996"/></linearGradient><linearGradient id="g" x1="-221.103" x2="-237.103" y1="92.796" y2="92.796" gradientTransform="matrix(-0.965926,-0.258819,-0.12943,0.483039,-113.51853,-58.689239)" xlink:href="#f"/><linearGradient id="h" x1="-231.103" x2="-227.103" y1="131.796" y2="131.796" gradientTransform="matrix(-0.965926,-0.258819,-0.258819,0.965926,-101.51204,-103.49941)" xlink:href="#c"/><linearGradient id="i" x1="88.039" x2="103.494" y1="43.361" y2="47.502" gradientUnits="userSpaceOnUse"><stop id="stop13" offset="0" stop-color="#02ab90"/><stop id="stop14" offset=".25" stop-color="#02cbac"/><stop id="stop15" offset=".5" stop-color="#118d7e"/><stop id="stop16" offset=".75" stop-color="#247b78"/><stop id="stop17" offset="1" stop-color="#1f726e"/></linearGradient><linearGradient id="j" x1="-221.103" x2="-237.103" y1="92.796" y2="92.796" gradientTransform="matrix(-0.965926,-0.258819,-0.12943,0.483039,-113.51888,-58.68925)" xlink:href="#f"/><g id="g42"><g id="g40" transform="rotate(-15,29.263092,333.89274)"><path id="path28" fill="#c0bfbc" d="M 114.60547,21.488281 108.80859,19.9375 c -0.20312,-0.05469 -0.40234,-0.07422 -0.59765,-0.06641 -0.85156,0.03125 -1.61719,0.613281 -1.85156,1.480468 -0.28516,1.070313 0.34375,2.164063 1.41406,2.449219 l 7.72656,2.070313 0.51953,-1.929688 c 0.28516,-1.070312 -0.34375,-2.164062 -1.41406,-2.453125 z m 0,0"/><path id="path29" fill="url(#d)" d="M 86.449219,80.203125 C 85.382812,79.917969 84.285156,80.550781 84,81.617188 l -0.519531,1.933593 c -0.285157,1.066407 0.347656,2.164063 1.417969,2.449219 1.066406,0.285156 2.160156,-0.347656 2.449218,-1.414062 l 0.515625,-1.933594 c 0.285157,-1.066406 -0.347656,-2.160156 -1.414062,-2.449219 z m 0,0" style="fill:url(#d)"/><path id="path30" fill="url(#e)" d="m 99.503906,11.417969 c -1.703125,0.06641 -3.234375,1.226562 -3.699218,2.964843 l -4.144532,15.453126 -0.753906,2.832031 -0.28125,1.03125 c 0,0.0039 0.0039,0.0039 0,0.0039 L 86.484375,49.15625 C 84.414062,56.882812 79.238281,76.203125 84,81.617188 l 3.863281,1.039062 c 6.832031,-2.3125 12.007813,-21.632812 14.078129,-29.359375 l 4.14062,-15.453125 0.27735,-1.039062 0.75781,-2.824219 4.14453,-15.457031 c 0.57031,-2.140626 -0.69141,-4.324219 -2.83203,-4.898438 l -7.72656,-2.070312 c -0.40235,-0.109376 -0.804692,-0.148438 -1.199224,-0.136719 z m 0,0" style="fill:url(#e)"/><path id="path31" fill="url(#g)" d="m 103.49609,47.5 -15.457028,-4.140625 -0.515624,1.933594 15.453122,4.140625 z m 0,0" style="fill:url(#g)"/><path id="path32" fill="#c0bfbc" d="m 111.63672,24.835938 -0.51563,1.933593 -0.51953,1.929688 -4.14062,15.457031 c -0.28516,1.070312 0.34375,2.164062 1.41406,2.449219 1.07031,0.285156 2.16406,-0.34375 2.44922,-1.414063 l 4.14062,-15.453125 0.51954,-1.933593 0.51562,-1.933594 -1.92969,-0.515625 z m 0,0"/><path id="path36" fill="url(#h)" d="M 86.449219,80.203125 C 85.382812,79.917969 84.285156,80.550781 84,81.617188 l -0.519531,1.933593 c -0.285157,1.066407 0.347656,2.164063 1.414062,2.449219 1.070313,0.285156 2.164063,-0.347656 2.449219,-1.414062 l 0.519531,-1.933594 c 0.285157,-1.066406 -0.347656,-2.160156 -1.414062,-2.449219 z m 0,0" style="fill:url(#h)"/><g id="g39"><path id="path35" fill="#c0bfbc" d="M 114.60547,21.488281 108.80859,19.9375 c -0.20312,-0.05469 -0.40234,-0.07422 -0.59765,-0.06641 -0.85156,0.03125 -1.61719,0.613281 -1.85156,1.480468 -0.28516,1.070313 0.34375,2.164063 1.41406,2.449219 l 7.72656,2.070313 0.51953,-1.929688 c 0.28516,-1.070312 -0.34375,-2.164062 -1.41406,-2.453125 z m 0,0"/><path id="path37" fill="#c0bfbc" d="m 111.63672,24.835938 -0.51563,1.933593 -0.51953,1.929688 -4.14062,15.457031 c -0.28516,1.070312 0.34375,2.164062 1.41406,2.449219 1.07031,0.285156 2.16406,-0.34375 2.44922,-1.414063 l 4.14062,-15.453125 0.51954,-1.933593 0.51562,-1.933594 -1.92969,-0.515625 z m 0,0"/><path id="path38" fill="url(#i)" d="m 99.503906,11.417969 c -1.703125,0.06641 -3.234375,1.226562 -3.699218,2.964843 l -4.144532,15.453126 -0.757812,2.832031 -0.277344,1.03125 v 0.0039 L 86.484375,49.15625 C 84.414062,56.882812 79.238281,76.203125 84,81.617188 l 3.863281,1.035156 C 94.695312,80.34375 99.871094,61.023438 101.94141,53.296875 l 4.14062,-15.457031 0.27735,-1.035156 0.75781,-2.828126 4.14062,-15.453124 c 0.57422,-2.140626 -0.6875,-4.324219 -2.82812,-4.898438 l -7.72656,-2.070312 c -0.40235,-0.109376 -0.804692,-0.148438 -1.199224,-0.136719 z m 0,0" style="fill:url(#i)"/></g><path id="path39" fill="url(#j)" d="m 103.49219,47.5 -15.453128,-4.140625 -0.519531,1.933594 15.457029,4.140625 z m 0,0" style="fill:url(#j)"/></g><path id="path17" fill="#f3ffe0" d="M 115.28634,15.883812 V 107.88381 H 36.286336 c -4.98438,0 -9,-4.01562 -9,-8.999998 v -78 c 0,-4.984375 4.01562,-9 9,-9 H 111.1965"/><path id="path18" fill="#51dcab" d="m 115.28634,43.883812 h -12 v 16 h 12 z m 0,0"/><path id="path19" fill="url(#a)" d="m 27.286336,98.883812 c 0,4.984378 4.01562,8.999998 9,8.999998 h 67.000004 v 16 H 36.286336 c -4.98438,0 -9,-4.01562 -9,-9 z m 0,0" style="fill:url(#a)"/><path id="path20" fill="#8aefbc" d="m 111.28634,11.883812 c 2.19531,0.05078 3.94922,1.804688 4,4 v 10 h -12 v -14 z m 0,0"/><g id="g41" transform="matrix(-1,0,0,1,127.28634,3.883812)"><path id="path21" fill="#00dab8" d="m 88,76 h -4 v 4 h 4 z m 0,0"/><path id="path22" fill="#ade9b5" d="M 88,32 V 48 H 68 V 44 H 32 V 32 Z m 0,20 v 8 H 60 V 56 H 32 v -4 z m -8,16 v 4 H 52 v -4 z m 0,8 v 4 H 64 v -4 z m 0,0"/><path id="path23" fill="#00dab8" d="m 88,68 h -4 v 4 h 4 z m 0,0"/><path id="path24" fill="#307d66" d="M 88,20 H 64 v 4 h 24 z m 0,0"/></g><path id="path25" fill="url(#b)" d="m 115.28634,99.883812 v 19.999998 c 0,2.21484 -1.78516,4 -4,4 h -8 V 99.883812 Z m 0,0" style="fill:url(#b)"/><path id="path26" fill="#02ab90" d="m 115.28634,75.883812 h -12 v 16 h 12 z m 0,0"/><path id="path27" fill="#8aefbc" d="m 115.28634,41.883812 h -12 v 2 h 12 z m 0,0"/><path id="path33" fill="#31c6a1" d="m 115.28634,59.883812 h -12 v 16 h 12 z m 0,0"/><path id="path34" fill="#068677" d="m 115.28634,91.883812 v 11.999998 c 0,2.21484 -1.78516,4 -4,4 h -8 V 91.883812 Z m 0,0"/></g></svg>